<svg xmlns="http://www.w3.org/2000/svg" shape-rendering="geometricPrecision" text-rendering="geometricPrecision" image-rendering="optimizeQuality" fill-rule="evenodd" clip-rule="evenodd" viewBox="0 0 421 511.605"><path fill="#E44B4D" d="M95.705.014h199.094L421 136.548v317.555c0 31.54-25.961 57.502-57.502 57.502H95.705c-31.55 0-57.502-25.873-57.502-57.502V57.515C38.203 25.886 64.076.014 95.705.014z"/><path fill="#CD4445" d="M341.028 133.408h-.019L421 188.771v-52.066h-54.357c-9.458-.15-17.998-1.274-25.615-3.297z"/><path fill="#FBCFD0" d="M294.8 0L421 136.533v.172h-54.357c-45.068-.718-69.33-23.397-71.843-61.384V0z"/><path fill="#CD4445" fill-rule="nonzero" d="M0 431.901V253.404l.028-1.261c.668-16.446 14.333-29.706 30.936-29.706h7.238v50.589h342.975c12.862 0 23.373 10.51 23.373 23.371v135.504c0 12.83-10.543 23.373-23.373 23.373H23.373C10.541 455.274 0 444.75 0 431.901z"/><path fill="#963232" fill-rule="nonzero" d="M143.448 240.364a8.496 8.496 0 01-8.496-8.497 8.496 8.496 0 018.496-8.497h163.176a8.496 8.496 0 018.496 8.497 8.496 8.496 0 01-8.496 8.497H143.448zm0-59.176a8.496 8.496 0 010-16.993h172.304a8.496 8.496 0 110 16.993H143.448z"/><path fill="#fff" fill-rule="nonzero" d="M11.329 276.171v154.728c0 7.793 6.38 14.178 14.179 14.178H380.175c7.799 0 14.178-6.379 14.178-14.178V297.405c0-7.798-6.388-14.178-14.178-14.178H37.892c-12.618-.096-19.586-1.638-26.563-7.056z"/><path fill="#1A1A1A" fill-rule="nonzero" d="M104.111 401.572v-81.894h42.454c7.861 0 13.474 1.529 16.838 4.586 3.363 3.059 5.043 7.514 5.043 13.365 0 5.853-1.068 10.374-3.209 13.562-2.141 3.19-5.001 5.264-8.582 6.225v.786c10.569 1.835 15.855 9.041 15.855 21.62 0 6.551-1.748 11.815-5.241 15.788-3.496 3.976-8.867 5.962-16.118 5.962h-47.04zm36.428-32.625h-10.222v13.365h10.089c3.669 0 5.504-2.229 5.504-6.684s-1.79-6.681-5.371-6.681zm-1.968-31.318h-8.254v12.188h8.124c3.32 0 4.979-2.032 4.979-6.093 0-4.064-1.616-6.095-4.849-6.095zm47.04 63.943v-81.894h26.206v81.894h-26.206zm91.329 0l-20.049-29.089c-.698-.961-1.135-3.057-1.31-6.29h-.525v35.379h-26.205v-81.894h24.634l20.049 29.089c.697.962 1.134 3.058 1.31 6.29h.522v-35.379h26.208v81.894H276.94z"/></svg>