<svg width="59.4" height="59.391" xmlns="http://www.w3.org/2000/svg" xml:space="preserve">

 <g>
  <title>Layer 1</title>
  <path id="svg_1" d="m59.387,16.45a82.463,82.463 0 0 0 -0.027,-1.792c-0.035,-1.301 -0.112,-2.614 -0.343,-3.9c-0.234,-1.307 -0.618,-2.523 -1.222,-3.71a12.464,12.464 0 0 0 -5.453,-5.452c-1.186,-0.604 -2.401,-0.987 -3.707,-1.222c-1.288,-0.232 -2.6,-0.308 -3.902,-0.343a85.714,85.714 0 0 0 -1.792,-0.027c-0.711,-0.004 -1.421,-0.004 -2.128,-0.004l-22.235,0c-0.71,0 -1.419,0 -2.128,0.004c-0.597,0.004 -1.195,0.01 -1.792,0.027c-0.325,0.009 -0.651,0.02 -0.978,0.036c-0.978,0.047 -1.959,0.133 -2.924,0.307c-0.98,0.176 -1.908,0.436 -2.811,0.81a12.503,12.503 0 0 0 -4.055,2.706a12.46,12.46 0 0 0 -2.294,3.158c-0.604,1.187 -0.986,2.402 -1.222,3.71c-0.231,1.286 -0.308,2.599 -0.343,3.9a85.767,85.767 0 0 0 -0.027,1.792c-0.005,0.71 -0.004,1.419 -0.004,2.128l0,22.235c0,0.71 0,1.418 0.004,2.128c0.004,0.597 0.01,1.194 0.027,1.791c0.035,1.302 0.112,2.615 0.343,3.901c0.235,1.307 0.618,2.523 1.222,3.71a12.457,12.457 0 0 0 5.453,5.453c1.186,0.603 2.401,0.986 3.707,1.22c1.287,0.232 2.6,0.31 3.902,0.344c0.597,0.016 1.195,0.023 1.793,0.027c0.709,0.005 1.417,0.004 2.127,0.004l22.235,0c0.709,0 1.418,0 2.128,-0.004c0.597,-0.004 1.194,-0.011 1.792,-0.027c1.302,-0.035 2.614,-0.112 3.902,-0.343c1.306,-0.235 2.521,-0.618 3.707,-1.222a12.461,12.461 0 0 0 5.453,-5.452c0.604,-1.187 0.987,-2.403 1.222,-3.71c0.231,-1.286 0.308,-2.6 0.343,-3.9c0.016,-0.598 0.023,-1.194 0.027,-1.792c0.004,-0.71 0.004,-1.419 0.004,-2.129l0,-22.234c0,-0.71 0,-1.419 -0.004,-2.128z" fill="#F05138"/>
  <path id="svg_2" d="m47.06,36.66l-0.004,-0.004c0.066,-0.224 0.134,-0.446 0.191,-0.675c2.465,-9.821 -3.55,-21.432 -13.731,-27.546c4.461,6.048 6.434,13.374 4.681,19.78c-0.156,0.571 -0.344,1.12 -0.552,1.653c-0.225,-0.148 -0.51,-0.316 -0.89,-0.527c0,0 -10.127,-6.252 -21.103,-17.312c-0.288,-0.29 5.852,8.777 12.822,16.14c-3.284,-1.843 -12.434,-8.5 -18.227,-13.802c0.712,1.187 1.558,2.33 2.489,3.43c4.837,6.135 11.146,13.703 18.704,19.517c-5.31,3.25 -12.814,3.502 -20.285,0.003a30.646,30.646 0 0 1 -5.193,-3.098c3.162,5.058 8.033,9.423 13.96,11.97c7.07,3.039 14.1,2.833 19.336,0.05l-0.004,0.007c0.024,-0.016 0.055,-0.032 0.08,-0.047c0.214,-0.116 0.428,-0.234 0.636,-0.358c2.516,-1.306 7.485,-2.63 10.152,2.559c0.654,1.27 2.041,-5.46 -3.061,-11.74l-0.001,0z" fill="#FFF"/>
 </g>
</svg>